<svg width="22" height="31" viewBox="0 0 22 31" fill="none" xmlns="http://www.w3.org/2000/svg">
<path fill-rule="evenodd" clip-rule="evenodd" d="M0 3.84C0 1.71922 1.71923 0 3.84 0H17.8347C19.9555 0 21.6747 1.71923 21.6747 3.84V26.9609C21.6747 29.0816 19.9555 30.8009 17.8347 30.8009H3.84C1.71923 30.8009 0 29.0816 0 26.9609V3.84ZM12.5674 15.0167C13.9924 14.3832 14.9861 12.9553 14.9861 11.2953C14.9861 9.04727 13.1637 7.22488 10.9156 7.22488C8.6676 7.22488 6.84521 9.04727 6.84521 11.2953C6.84521 12.9792 7.86771 14.4243 9.32569 15.0435C9.20468 15.2052 9.10352 15.3913 9.02824 15.6019L7.35247 20.2906C6.87575 21.6244 7.86453 23.0279 9.28099 23.0279H12.6325C14.049 23.0279 15.0378 21.6244 14.5611 20.2906L12.8853 15.6019C12.8058 15.3795 12.6975 15.1844 12.5674 15.0167ZM18.6326 3.80255C19.0526 3.80255 19.3931 3.46206 19.3931 3.04204C19.3931 2.62202 19.0526 2.28152 18.6326 2.28152C18.2125 2.28152 17.8721 2.62202 17.8721 3.04204C17.8721 3.46206 18.2125 3.80255 18.6326 3.80255Z" fill="#3E3E3E"/>
</svg>
